<svg width="24" height="24" viewBox="0 0 24 24" fill="none" xmlns="http://www.w3.org/2000/svg">
<path d="M16.972 6.25101C16.7424 6.12339 16.4899 6.04226 16.2289 6.01224C15.9679 5.98223 15.7036 6.00392 15.451 6.07607C15.1984 6.14822 14.9625 6.26943 14.7568 6.43277C14.5511 6.5961 14.3795 6.79837 14.252 7.02801L10.539 13.71L8.41398 11.585C8.22949 11.394 8.0088 11.2416 7.76479 11.1368C7.52078 11.032 7.25834 10.9768 6.99278 10.9745C6.72722 10.9722 6.46386 11.0228 6.21807 11.1234C5.97228 11.2239 5.74897 11.3724 5.56119 11.5602C5.3734 11.748 5.2249 11.9713 5.12434 12.2171C5.02377 12.4629 4.97317 12.7263 4.97548 12.9918C4.97779 13.2574 5.03296 13.5198 5.13778 13.7638C5.24259 14.0078 5.39496 14.2285 5.58598 14.413L9.58598 18.413C9.96398 18.792 10.474 19 11 19L11.277 18.98C11.5835 18.9371 11.8759 18.8237 12.1312 18.6486C12.3865 18.4735 12.5976 18.2416 12.748 17.971L17.748 8.97101C17.8756 8.74146 17.9568 8.48901 17.9869 8.22809C18.017 7.96716 17.9954 7.70286 17.9233 7.45028C17.8513 7.19771 17.7302 6.9618 17.5669 6.75602C17.4037 6.55025 17.2015 6.37865 16.972 6.25101Z" fill="#008080"/>
</svg>
